<svg xmlns="http://www.w3.org/2000/svg" shape-rendering="geometricPrecision" text-rendering="geometricPrecision" image-rendering="optimizeQuality" fill-rule="evenodd" clip-rule="evenodd" viewBox="0 0 512 396.63"><path fill-rule="nonzero" d="M12.41 86.41h16.73V45.33c0-5.71 4.62-10.33 10.32-10.33h18.39V10.34C57.85 4.63 62.46 0 68.17 0h167.74c5.71 0 10.33 4.63 10.33 10.34V35h226.23c5.71 0 10.33 4.62 10.33 10.33v41.08h18.87c5.71 0 10.33 4.63 10.33 10.33 0 2.24-.72 5.65-1.04 7.96l-35.37 260.06c-2.3 17.16-14.98 31.87-33.12 31.87H61.26c-18.25 0-31.31-14.71-33.2-32.17L.06 97.83c-.59-5.67 3.53-10.76 9.21-11.34 1.11-.11 1.98-.08 3.14-.08zm187.63 127.81h2.92v-9c0-15.03 5.93-28.74 15.47-38.7 9.63-10.03 22.92-16.27 37.57-16.27 14.65 0 27.95 6.23 37.56 16.27 9.55 9.96 15.48 23.66 15.48 38.7v9h2.93c4.75 0 8.65 3.89 8.65 8.65v85.59c0 4.76-3.9 8.65-8.65 8.65H200.04c-4.77 0-8.66-3.89-8.66-8.65v-85.59c0-4.76 3.89-8.65 8.66-8.65zm49.11 55.33-9.02 23.61h31.73l-8.34-23.94c5.3-2.72 8.92-8.24 8.92-14.61 0-9.08-7.36-16.44-16.45-16.44-9.07 0-16.43 7.36-16.43 16.44 0 6.62 3.92 12.34 9.59 14.94zm-29.8-55.33h73.3v-9c0-10.69-4.16-20.38-10.86-27.38-6.64-6.92-15.77-11.21-25.79-11.21-10.03 0-19.15 4.29-25.79 11.21-6.71 7-10.86 16.69-10.86 27.38v9zM21.84 107.12l26.79 255.26c.7 6.79 5.18 13.63 12.63 13.63h381.21c7.56 0 11.74-7.21 12.67-13.92l34.65-254.93c-155.98-.02-311.96-.04-467.95-.04zM49.8 55.71v30.66l412.33-4.38V55.71H235.91c-5.71 0-10.34-4.63-10.34-10.34V20.71H78.51v24.66c0 5.71-4.63 10.34-10.34 10.34H49.8z"/></svg>